# xmcd
#
# Track frame offsets:
#	150
#	15154
#	30003
#	43901
#	58175
#	74285
#	96643
#	117538
#	136018
#	153108
#	167283
#	186629
#	202035
#	215002
#
# Disc length: 3102 seconds
#
# Revision: 1
# Processed by: cddbd v1.5.1PL2 Copyright (c) Steve Scherf et al.
# Submitted via: audiograbber 1.83.01
#
DISCID=c20c1c0e
DTITLE=Audrey Smits - Vivid
DYEAR=2003
DGENRE=Country
TTITLE0=It Sounds So Fine
TTITLE1=Winterstar
TTITLE2=Bad Bad Boy
TTITLE3=Mama 
TTITLE4=Dimming Of The Day
TTITLE5=What If I Let You In
TTITLE6=Nothing Is Better
TTITLE7=You Live Just For Today
TTITLE8=The Weakness In Me 
TTITLE9=Your Someone New
TTITLE10=I Can Count On You
TTITLE11=It's Not You
TTITLE12=Relax
TTITLE13=If Tomorrow Never Comes
EXTD=http://www.audreysmits.com
EXTT0=
EXTT1=
EXTT2=
EXTT3=
EXTT4=
EXTT5=
EXTT6=
EXTT7=
EXTT8=
EXTT9=
EXTT10=
EXTT11=
EXTT12=
EXTT13=
PLAYORDER=
